<svg width="16" height="16" viewBox="0 0 16 16" fill="none" xmlns="http://www.w3.org/2000/svg">
<rect width="16" height="16" rx="8" fill="white"/>
<path d="M5.33131 5.8028V5.1728C5.33131 4.5908 5.13631 4.2998 4.74631 4.2998C4.56631 4.2998 4.42531 4.3688 4.32331 4.5068C4.22131 4.6448 4.17031 4.8428 4.17031 5.1008C4.17031 5.1788 4.17631 5.2628 4.18831 5.3528C4.20631 5.4428 4.24531 5.5388 4.30531 5.6408C4.35331 5.7308 4.42531 5.8388 4.52131 5.9648C4.61731 6.0848 4.73731 6.2138 4.88131 6.3518C4.95331 6.4298 5.03431 6.5108 5.12431 6.5948C5.20831 6.6848 5.30431 6.7778 5.41231 6.8738C5.73631 7.1678 6.03331 7.4558 6.30331 7.7378C6.57931 8.0198 6.80431 8.2688 6.97831 8.4848C7.15231 8.7128 7.29031 8.9318 7.39231 9.1418C7.49431 9.3518 7.56931 9.5678 7.61731 9.7898C7.64131 9.9038 7.65631 10.0208 7.66231 10.1408C7.67431 10.2608 7.68031 10.3868 7.68031 10.5188C7.68031 10.8788 7.64131 11.2118 7.56331 11.5178C7.48531 11.8178 7.36531 12.0878 7.20331 12.3278C7.05331 12.5558 6.85531 12.7508 6.60931 12.9128C6.36931 13.0748 6.10531 13.1918 5.81731 13.2638C5.49931 13.3478 5.15731 13.3898 4.79131 13.3898C4.05331 13.3898 3.45331 13.2308 2.99131 12.9128C2.53531 12.6008 2.23231 12.1358 2.08231 11.5178C2.00431 11.2178 1.96531 10.8728 1.96531 10.4828V9.5378H3.94531V10.4918C3.94531 10.8398 4.01731 11.1098 4.16131 11.3018C4.29331 11.4938 4.49731 11.5898 4.77331 11.5898C4.86931 11.5898 4.96231 11.5778 5.05231 11.5538C5.14231 11.5238 5.21731 11.4788 5.27731 11.4188C5.33131 11.3648 5.38231 11.2988 5.43031 11.2208C5.47831 11.1368 5.51431 11.0348 5.53831 10.9148C5.54431 10.8608 5.55031 10.8038 5.55631 10.7438C5.56231 10.6778 5.56531 10.6118 5.56531 10.5458C5.56531 10.4198 5.55631 10.3118 5.53831 10.2218C5.52031 10.1258 5.48431 10.0238 5.43031 9.9158C5.37031 9.8078 5.28631 9.6968 5.17831 9.5828C5.07631 9.4688 4.95631 9.3428 4.81831 9.2048C4.74031 9.1328 4.65331 9.0548 4.55731 8.9708C4.46731 8.8868 4.36831 8.7968 4.26031 8.7008C3.92431 8.4008 3.63031 8.1278 3.37831 7.8818C3.13231 7.6298 2.92231 7.3868 2.74831 7.1528C2.57431 6.9248 2.43631 6.7058 2.33431 6.4958C2.23831 6.2798 2.16631 6.0608 2.11831 5.8388C2.09431 5.7308 2.07631 5.6168 2.06431 5.4968C2.05831 5.3768 2.05531 5.2538 2.05531 5.1278C2.05531 4.7978 2.08831 4.4918 2.15431 4.2098C2.22631 3.9218 2.33731 3.6698 2.48731 3.4538C2.78131 3.0338 3.20731 2.7518 3.76531 2.6078C4.04131 2.5358 4.35631 2.4998 4.71031 2.4998C5.38231 2.4998 5.93431 2.6348 6.36631 2.9048C6.51031 2.9948 6.66331 3.1358 6.82531 3.3278C6.98731 3.5198 7.11331 3.7808 7.20331 4.1108C7.27531 4.3808 7.31131 4.6808 7.31131 5.0108V5.8028H5.33131ZM8.49313 2.5898H11.3821C12.1201 2.5898 12.7381 2.8058 13.2361 3.2378C13.4701 3.4478 13.6711 3.7148 13.8391 4.0388C14.0131 4.3628 14.1391 4.7138 14.2171 5.0918C14.3011 5.4998 14.3431 5.9438 14.3431 6.4238V9.4658C14.3431 9.9638 14.3011 10.4108 14.2171 10.8068C14.1331 11.2028 14.0071 11.5538 13.8391 11.8598C13.6711 12.1778 13.4701 12.4418 13.2361 12.6518C13.0021 12.8558 12.7261 13.0148 12.4081 13.1288C12.1021 13.2428 11.7601 13.2998 11.3821 13.2998H8.49313V2.5898ZM10.6081 11.3198H10.9051C11.7871 11.3198 12.2281 10.7018 12.2281 9.4658V6.4238C12.2281 5.1878 11.7871 4.5698 10.9051 4.5698H10.6081V11.3198Z" fill="#00249C"/>
</svg>
