<svg width="332" height="236" viewBox="0 0 332 236" fill="none" xmlns="http://www.w3.org/2000/svg">
<mask id="mask0_653_480" style="mask-type:luminance" maskUnits="userSpaceOnUse" x="0" y="0" width="332" height="236">
<path d="M0.660156 0.942383H331.66V235.942H0.660156V0.942383Z" fill="white"/>
</mask>
<g mask="url(#mask0_653_480)">
<path d="M331.566 33.0257V65.0518H320.889V75.7236H310.217V97.0726H320.889V107.75H331.566V139.771H310.217V129.099H299.54V118.422H288.868V107.75H278.191V129.099H267.52V150.448H256.842V161.119H246.171V171.797H224.822V182.468H203.473V193.14H182.124V235.838H160.775V225.166H150.103V214.494H139.426V225.166H128.754V214.494H118.077V203.817H107.405V182.468H96.7279V171.797H75.3789V161.119H64.707V150.448H54.0299V139.771H43.3581V129.099H32.681V118.422H22.0091V97.0726H11.332V75.7236H0.660156V54.3747H128.754V43.7028H139.426V33.0257H150.098V22.3538H160.775V11.6768H171.447V1.00488H192.796V65.0518H288.868V54.3747H299.54V43.7028H310.217V33.0257H331.566Z" fill="#00249C"/>
</g>
<path d="M310.217 43.7028V54.3747H299.54V65.0518H288.868V75.7236H192.801V65.0518H182.124V11.6768H171.452V22.3538H160.775V33.0257H150.103V43.7028H139.426V65.0518H11.332V75.7236H22.0091V97.0726H32.681V118.422H43.3581V129.099H54.0299V139.771H64.707V150.448H75.3789V139.771H86.056V129.099H96.7279V118.422H107.405V107.75H118.077V118.422H107.405V129.099H96.7279V139.771H86.056V150.448H75.3789V161.119H107.405V171.797H118.077V182.468H139.426V193.14H150.098V214.489H160.775V225.166H171.447V161.119H182.124V182.468H203.473V171.797H224.822V161.119H235.493V150.448H246.171V139.771H256.842V129.099H267.52V107.75H278.191V97.0726H288.868V107.75H299.54V118.422H310.217V129.099H320.889V107.75H310.217V97.0726H299.54V75.7236H310.217V65.0518H320.889V43.7028H310.217ZM75.3789 86.4007H86.056V97.0726H75.3789V86.4007Z" fill="#D2DBF8"/>
<path d="M118.078 193.146V203.817H128.755V214.494H139.427V193.146H118.078Z" fill="#D2DBF8"/>
<path d="M320.889 43.7028H310.217V54.3747H299.54V65.0518H288.868V75.7236H192.801V65.0518H182.124V11.6768H171.452V22.3538H160.775V33.0257H150.103V43.7028H139.426V65.0518H11.332V75.7236H22.0091V97.0726H43.3581V107.75H96.7279V97.0726H128.754V107.75H139.426V118.422H171.447V107.75H192.796V118.422H214.145V107.75H246.171V118.422H256.842V107.75H267.52V97.0726H278.191V86.4007H299.54V75.7236H310.217V65.0518H320.889V43.7028ZM86.056 97.0726H75.3789V86.4007H86.056V97.0726Z" fill="#4361C3"/>
<path d="M267.522 118.422V129.099H256.845V118.422H267.522ZM246.173 139.771H256.845V129.099H246.173V139.771ZM235.496 150.448H246.173V139.771H235.496V150.448ZM224.824 161.12H235.496V150.448H224.824V161.12ZM214.147 161.12H182.126V182.469H203.475V171.797H224.824V161.12H214.147ZM160.777 150.448H150.1V161.12H160.777V150.448ZM150.1 161.12H139.428V171.797H150.1V161.12ZM139.428 139.771H150.1V118.422H139.428V139.771ZM139.428 193.146H118.079V203.818H128.757V214.495H139.428V193.146ZM128.757 150.448H139.428V139.771H128.757V150.448ZM139.428 118.422V107.75H128.757V118.422H139.428ZM128.757 182.469H139.428V171.797H118.079V182.469H128.757ZM118.079 161.12H128.757V150.448H118.079V161.12ZM107.408 171.797H118.079V161.12H107.408V171.797ZM96.7305 150.448H86.0586V161.12H107.408V150.448H96.7305Z" fill="#829BEB"/>
<path d="M107.405 129.099V118.422H118.077V129.099H107.405ZM96.7279 139.771H107.405V129.099H96.7279V139.771ZM107.405 118.422V107.75H96.7279V118.422H107.405ZM96.7279 139.771H86.056V150.448H96.7279V139.771ZM96.7279 118.422H86.056V129.099H96.7279V118.422ZM86.056 150.448H75.3789V161.12H86.056V150.448ZM86.056 129.099H75.3789V139.771H86.056V129.099ZM75.3789 139.771H64.707V150.448H75.3789V139.771Z" fill="white"/>
</svg>
