<svg width="618" height="373" viewBox="0 0 618 373" fill="none" xmlns="http://www.w3.org/2000/svg">
<path d="M597.661 22.7754V331.521C597.661 342.778 588.502 351.937 577.247 351.937H22.5156C22.6114 361.879 30.6908 369.909 40.6547 369.909H597.484C607.507 369.909 615.631 361.785 615.631 351.762V40.9145C615.631 30.9486 607.601 22.8711 597.659 22.7754H597.661Z" fill="#829BEB"/>
<mask id="mask0_632_378" style="mask-type:luminance" maskUnits="userSpaceOnUse" x="0" y="0" width="618" height="373">
<path d="M0 0H618V372.365H0V0Z" fill="white"/>
</mask>
<g mask="url(#mask0_632_378)">
<path d="M597.661 20.5084V19.4796C597.661 8.88015 589.037 0.258789 578.44 0.258789H19.2188C8.62136 0.258789 0 8.88219 0 19.4796V331.521C0 342.722 9.06954 351.84 20.2496 351.928C20.3392 363.108 29.4536 372.177 40.654 372.177H597.484C608.741 372.177 617.898 363.02 617.898 351.763V40.9149C617.898 29.7165 608.833 20.6041 597.659 20.5084H597.661ZM615.633 351.763C615.633 361.786 607.509 369.91 597.486 369.91H40.654C30.6902 369.91 22.6107 361.879 22.515 351.938H577.242C588.5 351.938 597.659 342.779 597.659 331.521V22.7758C607.6 22.8715 615.631 30.949 615.631 40.9149V351.763H615.633ZM2.26535 20.6734V19.4796C2.26535 10.1188 9.85793 2.52617 19.2188 2.52617H578.438C587.801 2.52617 595.391 10.1188 595.391 19.4796V52.48H2.26535V20.6734ZM2.26535 54.7473H595.393V331.521C595.393 341.546 587.269 349.67 577.246 349.67H20.4146C10.3896 349.67 2.26535 341.546 2.26535 331.521V54.7473Z" fill="#00249C"/>
</g>
<path d="M2.26172 52.4816H595.39V19.4813C595.39 10.1184 587.797 2.52783 578.436 2.52783H19.2152C9.8543 2.5258 2.26172 10.1184 2.26172 19.4792V52.4816ZM551.951 18.371C551.713 18.1306 551.578 17.8108 551.578 17.4726C551.578 17.1344 551.713 16.8166 551.949 16.5783C552.197 16.3298 552.523 16.2055 552.849 16.2055C553.173 16.2055 553.499 16.3298 553.746 16.5763L562.876 25.7069L572.007 16.5763C572.253 16.3277 572.581 16.2034 572.905 16.2034C573.068 16.2034 573.229 16.236 573.384 16.2972C573.535 16.3583 573.679 16.4499 573.802 16.5763C574.042 16.8126 574.175 17.1304 574.175 17.4706C574.175 17.8108 574.042 18.1286 573.802 18.369L564.671 27.5017L573.802 36.6323C574.042 36.8707 574.175 37.1905 574.175 37.5307C574.175 37.8709 574.042 38.1887 573.802 38.4291C573.567 38.6675 573.248 38.7999 572.907 38.8019C572.567 38.8019 572.247 38.6675 572.007 38.4291L562.876 29.2964L553.746 38.4291C553.499 38.6777 553.173 38.8019 552.847 38.8019C552.523 38.8019 552.197 38.6777 551.951 38.4291C551.711 38.1928 551.578 37.873 551.578 37.5328C551.578 37.1925 551.711 36.8727 551.951 36.6344L561.082 27.5037L551.951 18.373V18.371ZM36.7981 11.9152C45.393 11.9152 52.3846 18.9088 52.3846 27.5017C52.3846 36.0945 45.3909 43.0882 36.7981 43.0882C28.2032 43.0882 21.2116 36.0945 21.2116 27.5017C21.2116 18.9088 28.2032 11.9152 36.7981 11.9152Z" fill="#D2DBF8"/>
<path d="M50.1207 27.5037C50.1207 27.9396 50.1003 28.3756 50.0576 28.8095C50.0148 29.2434 49.9496 29.6753 49.864 30.1031C49.7805 30.5309 49.6746 30.9526 49.5462 31.3703C49.4199 31.7879 49.2733 32.1973 49.1062 32.6007C48.9392 33.0041 48.7538 33.3972 48.548 33.7823C48.3423 34.1673 48.1182 34.5421 47.8757 34.9048C47.6333 35.2674 47.3746 35.6157 47.0975 35.9539C46.8205 36.2901 46.5271 36.614 46.2195 36.9216C45.9119 37.2312 45.588 37.5225 45.2519 37.7996C44.9137 38.0767 44.5633 38.3374 44.2007 38.5778C43.838 38.8202 43.4652 39.0443 43.0802 39.2501C42.6952 39.4558 42.302 39.6433 41.8986 39.8103C41.4953 39.9774 41.0858 40.124 40.6682 40.2503C40.2506 40.3766 39.8268 40.4826 39.399 40.5681C38.9712 40.6537 38.5414 40.7168 38.1074 40.7596C37.6715 40.8024 37.2376 40.8228 36.8016 40.8228C36.3657 40.8228 35.9297 40.8024 35.4958 40.7596C35.0619 40.7168 34.63 40.6537 34.2022 40.5681C33.7744 40.4826 33.3527 40.3766 32.935 40.2503C32.5174 40.124 32.1059 39.9774 31.7046 39.8103C31.3012 39.6433 30.906 39.4558 30.523 39.2501C30.138 39.0443 29.7631 38.8202 29.4005 38.5778C29.0379 38.3374 28.6875 38.0767 28.3514 37.7996C28.0132 37.5225 27.6913 37.2312 27.3817 36.9216C27.0741 36.614 26.7807 36.2901 26.5036 35.9539C26.2286 35.6157 25.9679 35.2674 25.7254 34.9048C25.483 34.5421 25.2589 34.1673 25.0532 33.7823C24.8474 33.3972 24.662 33.0041 24.495 32.6007C24.3279 32.1973 24.1813 31.7879 24.055 31.3703C23.9286 30.9526 23.8227 30.5309 23.7372 30.1031C23.6516 29.6753 23.5884 29.2434 23.5457 28.8095C23.5029 28.3756 23.4805 27.9396 23.4805 27.5037C23.4805 27.0677 23.5029 26.6318 23.5457 26.1978C23.5884 25.7639 23.6516 25.3341 23.7372 24.9042C23.8227 24.4764 23.9286 24.0547 24.055 23.6371C24.1813 23.2195 24.3279 22.81 24.495 22.4066C24.662 22.0033 24.8474 21.6101 25.0532 21.2251C25.2589 20.84 25.483 20.4672 25.7254 20.1046C25.9679 19.742 26.2286 19.3916 26.5036 19.0534C26.7807 18.7173 27.0741 18.3934 27.3817 18.0858C27.6913 17.7761 28.0132 17.4848 28.3514 17.2078C28.6875 16.9307 29.0379 16.672 29.4005 16.4295C29.7631 16.1871 30.138 15.963 30.523 15.7573C30.906 15.5515 31.3012 15.3641 31.7046 15.1971C32.1059 15.03 32.5174 14.8833 32.935 14.757C33.3527 14.6307 33.7744 14.5248 34.2022 14.4392C34.63 14.3557 35.0619 14.2905 35.4958 14.2477C35.9297 14.2049 36.3657 14.1846 36.8016 14.1846C37.2376 14.1846 37.6715 14.2049 38.1074 14.2477C38.5414 14.2905 38.9712 14.3557 39.399 14.4392C39.8268 14.5248 40.2506 14.6307 40.6682 14.757C41.0858 14.8833 41.4953 15.03 41.8986 15.1971C42.302 15.3641 42.6952 15.5515 43.0802 15.7573C43.4652 15.963 43.838 16.1871 44.2007 16.4295C44.5633 16.672 44.9137 16.9307 45.2519 17.2078C45.588 17.4848 45.9119 17.7761 46.2195 18.0858C46.5271 18.3934 46.8205 18.7173 47.0975 19.0534C47.3746 19.3916 47.6333 19.742 47.8757 20.1046C48.1182 20.4672 48.3423 20.84 48.548 21.2251C48.7538 21.6101 48.9392 22.0033 49.1062 22.4066C49.2733 22.81 49.4199 23.2195 49.5462 23.6371C49.6746 24.0547 49.7805 24.4764 49.864 24.9042C49.9496 25.3341 50.0148 25.7639 50.0576 26.1978C50.1003 26.6318 50.1207 27.0677 50.1207 27.5037Z" fill="#829BEB"/>
<path d="M36.8013 43.0905C45.3962 43.0905 52.3878 36.0968 52.3878 27.504C52.3878 18.9111 45.3942 11.9175 36.8013 11.9175C28.2065 11.9175 21.2148 18.9111 21.2148 27.504C21.2148 36.0968 28.2065 43.0905 36.8013 43.0905ZM50.1204 27.504C50.1204 34.8602 44.1556 40.8231 36.8013 40.8231C29.4451 40.8231 23.4802 34.8602 23.4802 27.504C23.4802 20.1477 29.4451 14.1849 36.8013 14.1849C44.1556 14.1849 50.1204 20.1477 50.1204 27.504Z" fill="#00249C"/>
<path d="M551.582 37.5329C551.582 37.8731 551.714 38.193 551.955 38.4293C552.201 38.6778 552.527 38.8021 552.853 38.8021C553.177 38.8021 553.503 38.6778 553.75 38.4293L562.88 29.2966L572.011 38.4293C572.251 38.6676 572.571 38.8021 572.911 38.8021C573.252 38.8021 573.569 38.6697 573.806 38.4293C574.05 38.1889 574.178 37.8711 574.178 37.5309C574.178 37.1907 574.046 36.8708 573.806 36.6325L564.675 27.5018L573.806 18.3691C574.046 18.1308 574.178 17.811 574.178 17.4707C574.178 17.1305 574.046 16.8127 573.806 16.5764C573.681 16.4501 573.539 16.3584 573.388 16.2973C573.233 16.2362 573.072 16.2036 572.909 16.2036C572.583 16.2036 572.259 16.3279 572.011 16.5764L562.88 25.7071L553.75 16.5764C553.503 16.3279 553.179 16.2057 552.853 16.2057C552.525 16.2057 552.201 16.3299 551.953 16.5785C551.716 16.8168 551.582 17.1326 551.582 17.4728C551.582 17.813 551.716 18.1308 551.955 18.3712L561.085 27.5018L551.955 36.6325C551.714 36.8708 551.582 37.1907 551.582 37.5309V37.5329Z" fill="#00249C"/>
</svg>
