<svg width="295" height="432" viewBox="0 0 295 432" fill="none" xmlns="http://www.w3.org/2000/svg">
<path d="M34.7778 18.1841H277.072C277.608 18.1841 278.144 18.2104 278.679 18.263C279.215 18.3156 279.746 18.3945 280.272 18.4997C280.798 18.6025 281.319 18.734 281.833 18.8894C282.347 19.0449 282.852 19.2266 283.349 19.4322C283.844 19.6379 284.329 19.8674 284.803 20.1209C285.279 20.3743 285.738 20.6493 286.185 20.9482C286.632 21.247 287.062 21.5651 287.478 21.907C287.892 22.2489 288.291 22.6076 288.669 22.9877C289.049 23.3679 289.41 23.7648 289.752 24.1809C290.092 24.5969 290.412 25.0273 290.711 25.4745C291.008 25.9192 291.285 26.3807 291.538 26.8541C291.792 27.3275 292.021 27.8129 292.225 28.3103C292.43 28.8052 292.612 29.3121 292.767 29.8262C292.925 30.3403 293.054 30.8592 293.16 31.3876C293.265 31.9136 293.344 32.4444 293.396 32.98C293.449 33.5133 293.475 34.0489 293.475 34.5868V414.736C293.475 415.274 293.449 415.81 293.396 416.346C293.344 416.879 293.265 417.41 293.16 417.938C293.054 418.464 292.925 418.985 292.767 419.499C292.612 420.014 292.43 420.518 292.225 421.015C292.021 421.51 291.792 421.996 291.538 422.469C291.285 422.943 291.008 423.404 290.711 423.851C290.412 424.296 290.092 424.729 289.752 425.142C289.41 425.558 289.049 425.955 288.669 426.336C288.291 426.716 287.892 427.077 287.478 427.416C287.062 427.758 286.632 428.076 286.185 428.375C285.738 428.674 285.279 428.949 284.803 429.202C284.329 429.456 283.844 429.685 283.349 429.891C282.852 430.097 282.347 430.278 281.833 430.434C281.319 430.589 280.798 430.721 280.272 430.826C279.746 430.929 279.215 431.008 278.679 431.06C278.144 431.113 277.608 431.139 277.072 431.139H34.7778C34.2398 431.139 33.7042 431.113 33.171 431.06C32.6354 431.008 32.1045 430.929 31.5785 430.826C31.0501 430.721 30.5312 430.589 30.0171 430.434C29.5031 430.278 28.9961 430.097 28.5012 429.891C28.0039 429.685 27.5185 429.456 27.045 429.202C26.5716 428.949 26.1101 428.674 25.6654 428.375C25.2183 428.076 24.7879 427.758 24.3718 427.416C23.9558 427.077 23.5588 426.716 23.1787 426.336C22.7985 425.955 22.4374 425.558 22.0979 425.142C21.756 424.729 21.438 424.296 21.1391 423.851C20.8402 423.404 20.5652 422.943 20.3118 422.469C20.0583 421.996 19.8288 421.51 19.6231 421.015C19.4175 420.518 19.2358 420.014 19.0804 419.499C18.9249 418.985 18.7934 418.464 18.6906 417.938C18.5854 417.41 18.5065 416.879 18.4539 416.346C18.4013 415.81 18.375 415.274 18.375 414.736V34.5868C18.375 34.0489 18.4013 33.5133 18.4539 32.98C18.5065 32.4444 18.5854 31.9136 18.6906 31.3876C18.7934 30.8592 18.9249 30.3403 19.0804 29.8262C19.2358 29.3121 19.4175 28.8052 19.6231 28.3103C19.8288 27.8129 20.0583 27.3275 20.3118 26.8541C20.5652 26.3807 20.8402 25.9192 21.1391 25.4745C21.438 25.0273 21.756 24.5969 22.0979 24.1809C22.4374 23.7648 22.7985 23.3679 23.1787 22.9877C23.5588 22.6076 23.9558 22.2489 24.3718 21.907C24.7879 21.5651 25.2183 21.247 25.6654 20.9482C26.1101 20.6493 26.5716 20.3743 27.045 20.1209C27.5185 19.8674 28.0039 19.6379 28.5012 19.4322C28.9961 19.2266 29.5031 19.0449 30.0171 18.8894C30.5312 18.734 31.0501 18.6025 31.5785 18.4997C32.1045 18.3945 32.6354 18.3156 33.171 18.263C33.7042 18.2104 34.2398 18.1841 34.7778 18.1841Z" fill="#829BEB"/>
<mask id="mask0_632_379" style="mask-type:luminance" maskUnits="userSpaceOnUse" x="16" y="17" width="279" height="416">
<path d="M16.9258 17.145H294.733V432.001H16.9258V17.145Z" fill="white"/>
</mask>
<g mask="url(#mask0_632_379)">
<path d="M277.071 19.1474C285.6 19.1474 292.51 26.06 292.51 34.5866V414.734C292.51 423.263 285.6 430.173 277.071 430.173H34.7765C26.25 430.173 19.3374 423.263 19.3374 414.734V34.5866C19.3374 26.06 26.25 19.1474 34.7765 19.1474H277.071ZM277.071 17.2202H34.7765C25.2003 17.2202 17.4102 25.0103 17.4102 34.5866V414.734C17.4102 424.312 25.2003 432.103 34.7765 432.103H277.071C286.647 432.103 294.438 424.312 294.438 414.734V34.5866C294.438 25.0103 286.647 17.2202 277.071 17.2202Z" fill="#00249C"/>
</g>
<path d="M17.5575 0.96582H259.85C268.905 0.96582 276.253 8.31598 276.253 17.3686V397.518C276.253 406.573 268.905 413.921 259.85 413.921H17.5575C8.50489 413.921 1.15234 406.571 1.15234 397.516V17.3686C1.15234 8.31359 8.50489 0.96582 17.5575 0.96582Z" fill="white"/>
<mask id="mask1_632_379" style="mask-type:luminance" maskUnits="userSpaceOnUse" x="0" y="0" width="278" height="416">
<path d="M0 0H277.687V415.019H0V0Z" fill="white"/>
</mask>
<g mask="url(#mask1_632_379)">
<path d="M259.849 1.9296C268.377 1.9296 275.288 8.8398 275.288 17.3688V397.516C275.288 406.045 268.377 412.955 259.849 412.955H17.5563C9.0273 412.955 2.1171 406.045 2.1171 397.516V17.3688C2.1171 8.8398 9.0273 1.9296 17.5563 1.9296H259.849ZM259.849 0H17.5563C7.98001 0 0.1875 7.79251 0.1875 17.3688V397.516C0.1875 407.092 7.98001 414.885 17.5563 414.885H259.849C269.425 414.885 277.217 407.092 277.217 397.516V17.3688C277.217 7.79251 269.425 0 259.849 0Z" fill="#00249C"/>
</g>
<path d="M1.15234 45.3896V16.3524C1.15234 7.86646 8.05776 0.96582 16.5413 0.96582H260.866C269.352 0.96582 276.253 7.86885 276.253 16.3524V45.3896H1.15234Z" fill="#D2DBF8"/>
<mask id="mask2_632_379" style="mask-type:luminance" maskUnits="userSpaceOnUse" x="0" y="0" width="278" height="47">
<path d="M0 0H277.687V46.5255H0V0Z" fill="white"/>
</mask>
<g mask="url(#mask2_632_379)">
<path d="M260.865 1.9296C268.832 1.9296 275.288 8.38789 275.288 16.3526V44.4261H2.1171V16.3526C2.1171 8.38789 8.57539 1.9296 16.5401 1.9296H260.865ZM260.865 0H16.5401C7.52331 0 0.1875 7.33581 0.1875 16.3526V46.3533H277.217V16.3526C277.217 7.33342 269.884 0 260.867 0H260.865Z" fill="#00249C"/>
</g>
<path d="M43.7929 23.1791C43.7929 23.5808 43.7738 23.9825 43.7331 24.3842C43.6949 24.7835 43.6351 25.1828 43.5562 25.5774C43.4773 25.9719 43.3817 26.3616 43.2645 26.7466C43.1473 27.134 43.011 27.5118 42.858 27.8848C42.7026 28.2554 42.5304 28.6188 42.3415 28.9751C42.1526 29.329 41.9446 29.6757 41.7223 30.0104C41.4975 30.3452 41.2584 30.668 41.0025 30.9788C40.7467 31.2896 40.4765 31.5885 40.192 31.8731C39.9074 32.1576 39.6085 32.4278 39.2977 32.6836C38.9869 32.9395 38.6641 33.1786 38.3293 33.401C37.9946 33.6257 37.6479 33.8314 37.294 34.0226C36.9377 34.2115 36.5743 34.3837 36.2037 34.5391C35.8306 34.6921 35.4529 34.8284 35.0679 34.9456C34.6805 35.0604 34.2908 35.1584 33.8963 35.2373C33.5017 35.3162 33.1048 35.376 32.7031 35.4142C32.3014 35.4549 31.8997 35.474 31.498 35.474C31.0939 35.474 30.6922 35.4549 30.2929 35.4142C29.8912 35.376 29.4943 35.3162 29.0998 35.2373C28.7029 35.1584 28.3131 35.0604 27.9282 34.9456C27.5432 34.8284 27.1654 34.6921 26.7924 34.5391C26.4194 34.3837 26.0559 34.2115 25.7021 34.0226C25.3458 33.8314 25.0015 33.6257 24.6667 33.401C24.332 33.1786 24.0092 32.9395 23.6983 32.6836C23.3851 32.4278 23.0886 32.1576 22.8041 31.8731C22.5195 31.5885 22.2494 31.2896 21.9935 30.9788C21.7377 30.668 21.4986 30.3452 21.2738 30.0104C21.0514 29.6757 20.8434 29.329 20.6545 28.9751C20.4632 28.6188 20.2911 28.2554 20.138 27.8848C19.985 27.5118 19.8487 27.134 19.7316 26.7466C19.6144 26.3616 19.5164 25.9719 19.4375 25.5774C19.3609 25.1828 19.3012 24.7835 19.2605 24.3842C19.2223 23.9825 19.2031 23.5808 19.2031 23.1791C19.2031 22.775 19.2223 22.3733 19.2605 21.974C19.3012 21.5723 19.3609 21.1754 19.4375 20.7785C19.5164 20.384 19.6144 19.9942 19.7316 19.6093C19.8487 19.2243 19.985 18.8441 20.138 18.4735C20.2911 18.1005 20.4632 17.737 20.6545 17.3832C20.8434 17.0269 21.0514 16.6826 21.2738 16.3478C21.4986 16.0131 21.7377 15.6903 21.9935 15.3771C22.2494 15.0662 22.5195 14.7697 22.8041 14.4852C23.0886 14.1983 23.3851 13.9281 23.6983 13.6746C24.0092 13.4188 24.332 13.1797 24.6667 12.9549C25.0015 12.7301 25.3458 12.5245 25.7021 12.3356C26.0559 12.1443 26.4194 11.9722 26.7924 11.8191C27.1654 11.6637 27.5432 11.5298 27.9282 11.4127C28.3131 11.2955 28.7029 11.1975 29.0998 11.1186C29.4943 11.0396 29.8912 10.9823 30.2929 10.9416C30.6922 10.9034 31.0939 10.8818 31.498 10.8818C31.8997 10.8818 32.3014 10.9034 32.7031 10.9416C33.1048 10.9823 33.5017 11.0396 33.8963 11.1186C34.2908 11.1975 34.6805 11.2955 35.0679 11.4127C35.4529 11.5298 35.8306 11.6637 36.2037 11.8191C36.5743 11.9722 36.9377 12.1443 37.294 12.3356C37.6479 12.5245 37.9946 12.7301 38.3293 12.9549C38.6641 13.1797 38.9869 13.4188 39.2977 13.6746C39.6085 13.9281 39.9074 14.1983 40.192 14.4852C40.4765 14.7697 40.7467 15.0662 41.0025 15.3771C41.2584 15.6903 41.4975 16.0131 41.7223 16.3478C41.9446 16.6826 42.1526 17.0269 42.3415 17.3832C42.5304 17.737 42.7026 18.1005 42.858 18.4735C43.011 18.8441 43.1473 19.2243 43.2645 19.6093C43.3817 19.9942 43.4773 20.384 43.5562 20.7785C43.6351 21.1754 43.6949 21.5723 43.7331 21.974C43.7738 22.3733 43.7929 22.775 43.7929 23.1791Z" fill="#829BEB"/>
<path d="M31.4992 11.8451C37.7566 11.8451 42.8305 16.919 42.8305 23.1764C42.8305 29.4339 37.7566 34.5077 31.4992 34.5077C25.2417 34.5077 20.1679 29.4339 20.1679 23.1764C20.1679 16.919 25.2417 11.8451 31.4992 11.8451ZM31.4992 9.91553C24.1873 9.91553 18.2383 15.8645 18.2383 23.1764C18.2383 30.4859 24.1873 36.4349 31.4992 36.4349C38.8087 36.4349 44.7577 30.4859 44.7577 23.1764C44.7577 15.8645 38.8087 9.91553 31.4992 9.91553Z" fill="#00249C"/>
<path d="M249.163 23.179L256.93 15.408C257.135 15.2072 257.248 14.9346 257.248 14.6453C257.248 14.3559 257.135 14.0858 256.93 13.8825C256.511 13.4617 255.823 13.4617 255.404 13.8825L247.636 21.6511L239.867 13.8825C239.449 13.4641 238.762 13.4617 238.339 13.8825C238.138 14.0858 238.023 14.3559 238.023 14.6453C238.023 14.9346 238.138 15.2048 238.341 15.408L246.108 23.1766L238.341 30.9428C238.136 31.1461 238.023 31.4186 238.023 31.708C238.023 31.9973 238.136 32.2699 238.341 32.4707C238.762 32.8915 239.449 32.8915 239.867 32.4707L247.636 24.7021L255.404 32.4707C255.607 32.674 255.88 32.7863 256.169 32.7863C256.459 32.7863 256.729 32.6764 256.93 32.4707C257.138 32.2675 257.248 31.9949 257.248 31.7056C257.248 31.4163 257.135 31.1437 256.93 30.9428L249.163 23.1742V23.179Z" fill="#00249C"/>
</svg>
